<svg width="67" height="67" viewBox="0 0 67 67" fill="none" xmlns="http://www.w3.org/2000/svg">
<path d="M7.75574 59.5372V7.44741C7.75574 3.53787 10.9247 0.368164 14.835 0.368164H54.2408C56.9633 0.368164 59.1704 2.57519 59.1704 5.29775V54.1693C58.6144 57.0308 29.7671 58.0082 7.75574 59.5372Z" fill="#565656"/>
<path d="M14.7754 0.368164V57.8221L7.75574 59.5372V7.44741C7.75574 3.53787 10.9247 0.368164 14.835 0.368164" fill="black"/>
<path d="M55.7085 55.8217H57.5169C58.4296 55.8217 59.1694 55.0819 59.1694 54.1692C59.1694 53.2566 58.4296 52.5167 57.5169 52.5167H14.7745C10.8973 52.5167 7.75479 55.6592 7.75479 59.5364C7.75479 63.4136 10.8973 66.5561 14.7745 66.5561H57.5169C58.4296 66.5561 59.1694 65.8162 59.1694 64.9036C59.1694 63.9909 58.4296 63.2511 57.5169 63.2511H55.7085V55.8217Z" fill="black"/>
<path d="M22.94 32.513H46.8113C48.0902 32.513 49.1271 31.4761 49.1271 30.1972V15.8261C49.1271 14.5472 48.0902 13.5103 46.8113 13.5103H22.94C21.661 13.5103 20.6241 14.5472 20.6241 15.8261V30.1972C20.6241 31.4761 21.661 32.513 22.94 32.513Z" fill="#F5CD94"/>
<path d="M15.2128 63.2526H57.2125V55.8218H15.2128C13.1609 55.8218 11.4974 57.4853 11.4974 59.5372C11.4974 61.589 13.1609 63.2526 15.2128 63.2526Z" fill="#F5CD94"/>
<path d="M47.9585 40.1277H21.792C21.147 40.1277 20.6234 39.6048 20.6234 38.9591C20.6234 38.3134 21.1462 37.7905 21.792 37.7905H47.9585C48.6042 37.7905 49.1271 38.3134 49.1271 38.9591C49.1271 39.6048 48.6042 40.1277 47.9585 40.1277Z" fill="#F5CD94"/>
<path d="M47.9585 47.0496H21.792C21.147 47.0496 20.6234 46.5267 20.6234 45.881C20.6234 45.2353 21.1462 44.7124 21.792 44.7124H47.9585C48.6042 44.7124 49.1271 45.2353 49.1271 45.881C49.1271 46.5267 48.6042 47.0496 47.9585 47.0496Z" fill="#F5CD94"/>
</svg>
