<svg width="67" height="67" viewBox="0 0 67 67" fill="none" xmlns="http://www.w3.org/2000/svg">
<path d="M7.75574 59.5372V7.44741C7.75574 3.53787 10.9247 0.368164 14.835 0.368164H54.2408C56.9633 0.368164 59.1704 2.57519 59.1704 5.29775V54.1693C58.6144 57.0308 29.7671 58.0082 7.75574 59.5372Z" fill="#EB6B98"/>
<path d="M14.7754 0.368164V57.8221L7.75574 59.5372V7.44741C7.75574 3.53787 10.9247 0.368164 14.835 0.368164" fill="#E53170"/>
<path d="M55.7085 55.8217H57.5169C58.4295 55.8217 59.1694 55.0819 59.1694 54.1692C59.1694 53.2566 58.4295 52.5167 57.5169 52.5167H14.7744C10.8973 52.5167 7.75476 55.6592 7.75476 59.5364C7.75476 63.4136 10.8973 66.5561 14.7744 66.5561H57.5169C58.4295 66.5561 59.1694 65.8162 59.1694 64.9036C59.1694 63.9909 58.4295 63.2511 57.5169 63.2511H55.7085V55.8217Z" fill="#E53170"/>
<path d="M15.2128 63.2526H57.2124V55.8218H15.2128C13.1609 55.8218 11.4974 57.4853 11.4974 59.5372C11.4974 61.589 13.1609 63.2526 15.2128 63.2526Z" fill="#F5CD94"/>
<path d="M24.104 21.6888C26.7336 19.0591 30.9968 19.0591 33.6264 21.6888L33.9865 22.0489C35.8029 28.0769 35.6354 34.4547 33.9865 41.0938L29.2254 36.3325L24.1042 31.2113C21.4746 28.5816 21.4746 24.3184 24.104 21.6888Z" fill="#D6493E"/>
<path d="M43.8692 21.6888C41.2395 19.0591 36.9763 19.0591 34.3467 21.6888L33.9866 22.0489V41.0938L38.7477 36.3327L43.8689 31.2115C46.4985 28.5816 46.4985 24.3184 43.8692 21.6888Z" fill="#D75A4A"/>
</svg>
